# xmcd
#
# Track frame offsets:
#	183
#	14370
#	25373
#	37920
#	50945
#	62733
#	76603
#	90220
#	102623
#	113588
#	126678
#	137138
#	149403
#	160673
#	172145
#	184780
#	197095
#	207003
#	218133
#	228243
#
# Disc length: 3221 seconds
#
# Revision: 4
# Processed by: cddbd v1.5.2PL0 Copyright (c) Steve Scherf et al.
# Submitted via: EZCDAudioConverter 9.1.1.1
#
DISCID=1a0c9314
DTITLE=Various Artist - Country Western (Lily GL-105)
DYEAR=1900
DGENRE=Country
TTITLE0=Bill Monroe - BLUE MOON OF KENTUCKY
TTITLE1=Porter Wagoner - GREEN GREEN GRASS OF THE HOME
TTITLE2=Hank Williams - COLD COLD HEART
TTITLE3=Willie Nelson - CRAZY
TTITLE4=Johnny Cash - I WALK THE LINE
TTITLE5=Willie Nelson - FUNNY HOW THE SLIPS AWAY
TTITLE6=Glen Campbell - GENTLE ON MY MIND
TTITLE7=Hank Williams - YOUR CHEATIN' HEART
TTITLE8=Willie Nelson - HELLO WALLS
TTITLE9=Hank Williams - JAMBALAYA
TTITLE10=Texas Bill Strength - NORTH WIND
TTITLE11=Ray Price - RELESE ME
TTITLE12=Hank Snow - A FOOL SUCH AS I
TTITLE13=Sonny James - YOUNG LOVE
TTITLE14=Hank Williams - I SAW THE LIGHT
TTITLE15=Glen Campbell - BY THE TIME I GET TO PHOENIX
TTITLE16=Hank Williams - HONKY TONK BLUFS
TTITLE17=Willie Nelson - HALF A MAN
TTITLE18=Willie Nelson - TOUCH ME
TTITLE19=Hank Williams - HEY GOOD LOOKIN'
EXTD=
EXTT0=
EXTT1=
EXTT2=
EXTT3=
EXTT4=
EXTT5=
EXTT6=
EXTT7=
EXTT8=
EXTT9=
EXTT10=
EXTT11=
EXTT12=
EXTT13=
EXTT14=
EXTT15=
EXTT16=
EXTT17=
EXTT18=
EXTT19=
PLAYORDER=
